<?xml version="1.0" encoding="utf-8"?>
<!-- Generator: Adobe Illustrator 19.2.1, SVG Export Plug-In . SVG Version: 6.00 Build 0)  -->
<svg version="1.1" id="图层_1" xmlns="http://www.w3.org/2000/svg" xmlns:xlink="http://www.w3.org/1999/xlink" x="0px" y="0px"
	 viewBox="0 0 16 16" style="enable-background:new 0 0 16 16;" xml:space="preserve">
<style type="text/css">
	.st0{fill:#CCCCCC;}
</style>
<path class="st0" d="M7.7,8.4C7.3,8.1,6.8,8,6.8,8s0.4-0.3,0.6-0.6c0.2-0.3,0.3-0.7,0.3-1c0-0.2,0-1.2-0.7-1.7
	C6.5,4.3,5.9,4.1,5.1,4.1l0-1.9L4,2.2l0,1.9c-0.2,0-0.5,0-0.8,0l0-1.9l-1.1,0l0,1.9C1,4.2,0,4.2,0,4.2l0,1.2c0,0,0.5,0,0.6,0
	c0.2,0,0.5,0,0.6,0.2c0.1,0.2,0.2,0.2,0.2,0.6c0,0.3,0.1,4.8,0.1,5c0,0.1,0,0.3-0.1,0.4c-0.1,0.1-0.2,0.1-0.4,0.1
	c-0.2,0-0.6,0-0.6,0L0.2,13L2.3,13l0,1.9l1.1,0l0-1.9c0.3,0,0.6,0,0.8,0l0,1.9l1.1,0l0-1.9c0.3,0,0.5-0.1,0.7-0.1
	c0.3-0.1,1-0.2,1.6-0.7c0.6-0.5,0.8-1.3,0.8-2.1C8.4,9.2,8.1,8.7,7.7,8.4z M3.2,5.5c0,0,0.3,0,0.7,0c0.3,0,0.6,0,1.1,0.1
	C5.4,5.7,5.7,6,5.7,6.5c0,0.4-0.1,0.7-0.4,0.9C5,7.6,4.6,7.7,4.2,7.7c-0.4,0-0.9,0-0.9,0S3.2,5.5,3.2,5.5z M5.8,11.1
	c-0.2,0.2-0.7,0.3-1.2,0.4c-0.5,0.1-1.2,0.1-1.2,0.1L3.3,9c0,0,0.7-0.1,1.2,0c0.5,0,1,0.2,1.2,0.3c0.2,0.1,0.6,0.3,0.6,0.9
	C6.3,10.7,6,11,5.8,11.1z M14.1,4.2l1.7,0l0,8.6l-1.7,0l0-3.7l-2.9,0l0,3.7l-1.7,0l0-8.6l1.7,0l0,3.3l2.9,0
	C14.2,7.5,14.1,4.2,14.1,4.2z"/>
</svg>
