<?xml version="1.0" encoding="utf-8"?>
<!-- Generator: Adobe Illustrator 19.2.1, SVG Export Plug-In . SVG Version: 6.00 Build 0)  -->
<svg version="1.1" id="图层_1" xmlns="http://www.w3.org/2000/svg" xmlns:xlink="http://www.w3.org/1999/xlink" x="0px" y="0px"
	 viewBox="0 0 16 16" style="enable-background:new 0 0 16 16;" xml:space="preserve">
<style type="text/css">
	.st0{fill:#CCCCCC;}
</style>
<path class="st0" d="M6.9,0.4H5.5v2.3H2.7v1.5h1c0.5,0,0.7,0.1,0.7,0.5v6.4c0.1,0.3-0.1,0.6-0.4,0.7c0,0-0.1,0-0.1,0H2.9l0,1.5h2.7
	v2.3h1.4v-2.3h0.9v2.3h1.4v-2.3h0.3c2.9,0,3.8-1.4,3.8-3.4c0-1.1-0.8-2.1-1.9-2.4C12.4,7,12.8,6,12.7,5c-0.2-1.5-2-2.1-3.4-2.2V0.4
	H7.9v2.3H6.9L6.9,0.4L6.9,0.4z M10.6,9.8c0,1.1-0.7,1.8-2.2,1.8H6.9V8.6h1.8C9.1,8.6,10.7,8.7,10.6,9.8L10.6,9.8z M7.8,4.3
	c0.7,0,2.1,0.1,2.1,1.3c0,0.7-0.5,1.4-1.2,1.5H6.9V4.2L7.8,4.3L7.8,4.3z"/>
</svg>
